<?xml version="1.0" standalone="no"?>
<!DOCTYPE svg PUBLIC "-//W3C//DTD SVG 20010904//EN"
 "http://www.w3.org/TR/2001/REC-SVG-20010904/DTD/svg10.dtd">
<svg version="1.0" xmlns="http://www.w3.org/2000/svg"
 width="260.000000pt" height="260.000000pt" viewBox="0 0 260.000000 260.000000"
 preserveAspectRatio="xMidYMid meet">
<metadata>
Created by potrace 1.14, written by Peter Selinger 2001-2017
</metadata>
<g transform="translate(0.000000,260.000000) scale(0.100000,-0.100000)"
fill="#000000" stroke="none">
<path d="M490 2528 c-52 -36 -73 -71 -77 -130 -5 -71 25 -124 87 -155 l44 -23
756 0 c715 0 757 1 796 19 62 28 89 73 89 148 0 69 -17 101 -75 141 l-33 22
-777 0 -777 0 -33 -22z"/>
<path d="M665 1461 c-67 -16 -117 -71 -130 -142 -10 -54 22 -120 76 -156 l43
-28 650 0 651 0 37 23 c42 26 78 91 78 140 0 75 -53 143 -126 161 -49 12
-1229 14 -1279 2z"/>
<path d="M500 358 c-62 -32 -92 -85 -87 -156 4 -59 25 -94 77 -130 l33 -22
777 0 777 0 33 23 c52 35 73 70 77 129 5 71 -25 124 -87 156 l-44 22 -756 0
-756 0 -44 -22z"/>
</g>
</svg>
